<svg xmlns="http://www.w3.org/2000/svg" viewBox="0 0 100 100">
  <!-- Santa Hat -->
  <path d="M30 35 Q50 15 70 35 L65 50 L35 50 Z" fill="#DC143C"/>
  <ellipse cx="50" cy="35" rx="8" ry="6" fill="#FFFFFF"/>
  <rect x="33" y="48" width="34" height="6" rx="3" fill="#FFFFFF"/>
  
  <!-- Face -->
  <circle cx="50" cy="65" r="22" fill="#FFD4A3"/>
  
  <!-- Eyes -->
  <circle cx="42" cy="62" r="2.5" fill="#000000"/>
  <circle cx="58" cy="62" r="2.5" fill="#000000"/>
  
  <!-- Nose -->
  <circle cx="50" cy="68" r="2" fill="#FF6B6B"/>
  
  <!-- Beard -->
  <path d="M35 70 Q30 75 32 82 Q35 88 42 88 Q50 90 58 88 Q65 88 68 82 Q70 75 65 70 Z" fill="#FFFFFF"/>
  
  <!-- Mustache -->
  <path d="M38 72 Q45 75 50 73 Q55 75 62 72" fill="none" stroke="#FFFFFF" stroke-width="3" stroke-linecap="round"/>
  
  <!-- Rosy Cheeks -->
  <circle cx="38" cy="70" r="3" fill="#FFB6C1" opacity="0.6"/>
  <circle cx="62" cy="70" r="3" fill="#FFB6C1" opacity="0.6"/>
</svg>
